<!-- Generator: Adobe Illustrator 21.0.0, SVG Export Plug-In  -->
<svg version="1.1" xmlns="http://www.w3.org/2000/svg" xmlns:xlink="http://www.w3.org/1999/xlink" xmlns:a="http://ns.adobe.com/AdobeSVGViewerExtensions/3.0/" x="0px" y="0px" width="105.1px" height="105.1px" viewBox="0 0 105.1 105.1" style="enable-background:new 0 0 105.1 105.1;" xml:space="preserve">
<style type="text/css">
	.st0{fill:#FFFFFF;}
</style>
<defs>
</defs>
<g>
	<path class="st0" d="M93.2,50.8v-6.8h-7.7l-26-30.8c0.9-1.4,1.5-3,1.5-4.7C61,3.8,57.2,0,52.5,0s-8.5,3.8-8.5,8.5   c0,1.8,0.5,3.4,1.5,4.7l-26,30.8h-7.7v6.8H0v54.2h105.1V50.8H93.2z M89.8,50.8H79.7v-3.4h10.2V50.8z M52.5,3.4   c2.8,0,5.1,2.3,5.1,5.1s-2.3,5.1-5.1,5.1s-5.1-2.3-5.1-5.1S49.7,3.4,52.5,3.4z M48,15.6c1.3,0.8,2.9,1.4,4.6,1.4s3.2-0.5,4.6-1.4   l24,28.5h-4.8v6.8H28.8v-6.8H24L48,15.6z M15.2,47.4h10.2v3.4H15.2V47.4z M101.7,101.7H3.4V54.2h98.3V101.7z"/>
	<rect x="50.8" y="61" class="st0" width="3.4" height="33.9"/>
	<rect x="33.9" y="61" class="st0" width="3.4" height="33.9"/>
	<rect x="16.9" y="61" class="st0" width="3.4" height="33.9"/>
	<rect x="84.7" y="61" class="st0" width="3.4" height="33.9"/>
	<rect x="67.8" y="61" class="st0" width="3.4" height="33.9"/>
</g>
</svg>