<!-- Generator: Adobe Illustrator 21.0.0, SVG Export Plug-In  -->
<svg version="1.1"
	 xmlns="http://www.w3.org/2000/svg" xmlns:xlink="http://www.w3.org/1999/xlink" xmlns:a="http://ns.adobe.com/AdobeSVGViewerExtensions/3.0/"
	 x="0px" y="0px" width="96.5px" height="142px" viewBox="0 0 96.5 142" style="enable-background:new 0 0 96.5 142;"
	 xml:space="preserve">
<style type="text/css">
	.st0{fill:#FFFFFF;}
</style>
<defs>
</defs>
<path class="st0" d="M48.2,142c26.6,0,48.2-21.6,48.2-48.2c0-8.1-2.1-16.1-6-23.2c-0.2-0.6-0.5-1.1-0.7-1.3L48.2,0l-42,70.1
	C2.2,77.3,0,85.5,0,93.8C0,120.4,21.6,142,48.2,142z M15.1,74.2L48.2,19l32.9,54.8l0.3,0.7c3.4,5.9,5.2,12.5,5.2,19.2
	c0,21.2-17.2,38.5-38.5,38.5S9.8,115,9.8,93.8C9.8,87.1,11.6,80.4,15.1,74.2z"/>
</svg>
