<svg width="653" height="132" xmlns="http://www.w3.org/2000/svg">
 <defs>
  <style>.cls-1{fill:#367bb5;}.cls-2{fill:#5fb760;}.cls-3{fill:#eeac57;}.cls-4{fill:#d4564e;}.cls-5{fill:#2cbeba;}.cls-6{fill:gray;}.cls-7{fill:#000400;}.cls-8{fill:#666;}.cls-9{fill:#dedfe0;}.cls-10{fill:#bebfc1;}.cls-11{fill:#b3b3b3;}.cls-12{fill:#333;}.cls-13{fill:#ccc;}</style>
 </defs>
 <title>Artboard 2</title>
 <g>
  <title>background</title>
  <rect fill="none" id="canvas_background" height="134" width="655" y="-1" x="-1"/>
 </g>
 <g>
  <title>Layer 1</title>
  <path id="svg_280" d="m645.890015,44.940002l-29.390015,0s0.640015,10.649994 -50.049988,11.079987l79.140015,0a92.160004,92.160004 0 0 0 0.309998,-11.079987l-0.01001,0z" class="cls-6"/>
  <path id="svg_281" d="m28.730003,115.51001c0,1.619995 -0.520004,2.940002 -1.160004,2.940002s-1.159996,-1.320007 -1.159996,-2.940002s0.519997,-2.940002 1.159996,-2.940002s1.160004,1.320007 1.160004,2.940002z" class="cls-7"/>
  <path id="svg_282" d="m28.730003,122.769989c0,1.619995 -0.520004,2.940002 -1.160004,2.940002s-1.159996,-1.309998 -1.159996,-2.940002s0.519997,-2.940002 1.159996,-2.940002s1.160004,1.309998 1.160004,2.940002z" class="cls-7"/>
  <path id="svg_283" d="m36.25,120l-5.879997,0a1,1 0 0 1 0,-1.940002l5.869995,0a1,1 0 0 1 0,1.940002l0.010002,0z" class="cls-7"/>
  <polygon id="svg_284" points="23.589996337890625,111.08999633789062 4.009998321533203,111.08999633789062 8.979999542236328,126.94000244140625 23.589996337890625,126.94000244140625 23.589996337890625,111.08999633789062 23.589996337890625,111.08999633789062 " class="cls-8"/>
  <path id="svg_285" d="m50.07,77.73999l0,-19.169983l14.480003,-13.630005l28.110001,0l0,-15.76001l24.709991,-9.799988s3,-1.070007 3.050003,2.839996l0,35.5l30.580002,0l0,20l-100.93,0.019989z" class="cls-9"/>
  <polygon id="svg_286" points="151.02999877929688,77.739990234375 151.02999877929688,16.399993896484375 160.39999389648438,16.399993896484375 160.39999389648438,4.470001220703125 187.02999877929688,4.470001220703125 187.02999877929688,77.739990234375 151.02999877929688,77.739990234375 151.02999877929688,77.739990234375 " class="cls-10"/>
  <path id="svg_287" d="m35.589996,126.940002l543.129974,0a100.260002,100.260002 0 0 0 36.280029,-18.100006l-594,0c6.059998,0.649994 15.160004,4 14.589996,18.100006z" class="cls-11"/>
  <polygon id="svg_288" points="187.24000549316406,73.91000366210938 5.340000152587891,74.04998779296875 5.340000152587891,78.17001342773438 191.35000610351562,78.17001342773438 187.24000549316406,73.91000366210938 187.24000549316406,73.91000366210938 " class="cls-12"/>
  <path id="svg_289" d="m643.580017,56l-79.130005,0l-22.580017,22.149994l96.460022,0a76.639999,76.639999 0 0 0 5.25,-22.149994z" class="cls-11"/>
  <path id="svg_290" d="m638.330017,78.170013l-96.460022,0l0,11.5l-339.440002,0l-11.089996,-11.5l-186.000008,0l0,16.609985s1.280003,11.930023 10.440002,14.059998a23.42,23.42 0 0 1 5.220001,0l594.000008,0a75.5,75.5 0 0 0 23.369995,-30.669983l-0.039978,0z" class="cls-6"/>
  <polygon id="svg_291" points="114.97999572753906,44.05999755859375 98.35000610351562,44.05999755859375 98.35000610351562,34.910003662109375 114.97999572753906,34.910003662109375 114.97999572753906,44.05999755859375 114.97999572753906,44.05999755859375 " class="cls-10"/>
  <polygon id="svg_292" points="181.77999877929688,25.82000732421875 165.14999389648438,25.82000732421875 165.14999389648438,16.670013427734375 181.77999877929688,16.670013427734375 181.77999877929688,25.82000732421875 181.77999877929688,25.82000732421875 " class="cls-9"/>
  <polygon id="svg_293" points="181.77999877929688,39.489990234375 165.14999389648438,39.489990234375 165.14999389648438,30.339996337890625 181.77999877929688,30.339996337890625 181.77999877929688,39.489990234375 181.77999877929688,39.489990234375 " class="cls-9"/>
  <polygon id="svg_294" points="181.77999877929688,53.149993896484375 165.14999389648438,53.149993896484375 165.14999389648438,44 181.77999877929688,44 181.77999877929688,53.149993896484375 181.77999877929688,53.149993896484375 " class="cls-9"/>
  <polygon id="svg_295" points="114.97999572753906,59.67999267578125 98.35000610351562,59.67999267578125 98.35000610351562,50.519989013671875 114.97999572753906,50.519989013671875 114.97999572753906,59.67999267578125 114.97999572753906,59.67999267578125 " class="cls-10"/>
  <polygon id="svg_296" points="89.50999450683594,59.67999267578125 65.43000030517578,59.67999267578125 65.43000030517578,50.519989013671875 89.50999450683594,50.519989013671875 89.50999450683594,59.67999267578125 89.50999450683594,59.67999267578125 " class="cls-10"/>
 </g>
</svg>