<!-- Generator: Adobe Illustrator 21.0.0, SVG Export Plug-In  -->
<svg version="1.1"
	 xmlns="http://www.w3.org/2000/svg" xmlns:xlink="http://www.w3.org/1999/xlink" xmlns:a="http://ns.adobe.com/AdobeSVGViewerExtensions/3.0/"
	 x="0px" y="0px" width="11px" height="22px" viewBox="0 0 11 22" style="enable-background:new 0 0 11 22;" xml:space="preserve">
<style type="text/css">
	.st0{fill:#FFFFFF;}
</style>
<defs>
</defs>
<path class="st0" d="M9.1,17c0,1.7-1.4,3-3,3s-3-1.4-3-3c0-1.5,1.1-2.7,2.5-3V7.1h1.1v6.9C8,14.3,9.1,15.6,9.1,17z M11,17
	c0,2.7-2.2,5-4.9,5s-4.9-2.2-4.9-5c0-1.9,1.1-3.6,2.8-4.4V2.2C3.9,1,4.8,0,6.1,0s2.2,1,2.2,2.2v10.4C9.9,13.4,11,15.1,11,17z
	 M4.9,13.4c-1.6,0.5-2.8,1.9-2.8,3.7c0,2.1,1.7,3.9,3.8,3.9s3.9-1.7,3.9-3.9c0-1.7-1.2-3.2-2.8-3.7V2.2c0-0.6-0.5-1.1-1.1-1.1
	S4.9,1.6,4.9,2.2C4.9,2.2,4.9,13.4,4.9,13.4z"/>
<rect y="1.7" class="st0" width="3.3" height="0.5"/>
<rect x="1.1" y="3.3" class="st0" width="2.2" height="0.6"/>
<rect y="4.9" class="st0" width="3.3" height="0.6"/>
<rect x="1.1" y="6.6" class="st0" width="2.2" height="0.5"/>
<rect y="8.2" class="st0" width="3.3" height="0.6"/>
<rect x="1.1" y="9.9" class="st0" width="2.2" height="0.6"/>
<rect y="11.6" class="st0" width="3.3" height="0.6"/>
</svg>
